<svg width="100" height="100" viewBox="0 0 100 100" fill="none" xmlns="http://www.w3.org/2000/svg">
<path d="M33.5184 35.5223C29.6586 35.5223 26.5225 32.2311 26.5225 28.199C26.5225 24.1669 29.6586 20.8757 33.5184 20.8757C37.3782 20.8757 40.5143 24.1669 40.5143 28.199C40.5143 32.2311 37.3782 35.5223 33.5184 35.5223ZM33.5184 23.6844C31.2094 23.6844 29.314 25.7177 29.314 28.199C29.314 30.6975 31.1922 32.7136 33.5184 32.7136C35.8446 32.7136 37.7056 30.6803 37.7056 28.199C37.7228 25.7177 35.8446 23.6844 33.5184 23.6844Z" fill="#BABABA"/>
<path d="M33.5184 85.2862C32.743 85.2862 32.1227 84.6658 32.1227 83.8904V63.2302C32.1227 62.4548 32.743 61.8345 33.5184 61.8345C34.2938 61.8345 34.9141 62.4548 34.9141 63.2302V83.8904C34.9314 84.6658 34.2938 85.2862 33.5184 85.2862Z" fill="#BABABA"/>
<path d="M64.3278 85.2863H17.7863C17.0109 85.2863 16.3906 84.666 16.3906 83.8906C16.3906 83.1152 17.0281 82.4949 17.7863 82.4949H64.345C65.1205 82.4949 65.7408 83.1152 65.7408 83.8906C65.7408 84.666 65.1032 85.2863 64.3278 85.2863Z" fill="#BABABA"/>
<path d="M39.7733 85.2859H27.2635C26.4881 85.2859 25.8677 84.6656 25.8677 83.8902V46.7569C16.7869 44.9477 10.5319 39.3303 7.65433 34.5572C6.46537 32.5584 6.93062 29.9737 8.77436 28.5608C10.6009 27.1478 13.2028 27.2857 14.8053 28.9054C20.5261 34.6434 26.3674 36.9868 27.5047 37.4004H39.5321C40.6693 36.9868 46.5107 34.6434 52.2315 28.9054C53.834 27.2857 56.4359 27.1478 58.2624 28.5608C60.1062 29.991 60.5714 32.5756 59.3825 34.5572C56.5048 39.3475 50.2499 44.9477 41.1691 46.7569V83.8902C41.1863 84.6656 40.5487 85.2859 39.7733 85.2859ZM28.6764 82.4945H38.3776V45.5852C38.3776 44.896 38.8773 44.3101 39.5666 44.2067C48.3372 42.811 54.3165 37.5727 56.9873 33.1098C57.4526 32.3344 57.263 31.3178 56.5565 30.7664C55.8501 30.215 54.8334 30.2667 54.2303 30.8697C47.3895 37.7278 40.5143 40.0195 40.2213 40.1057C40.0835 40.1574 39.9284 40.1746 39.7906 40.1746H27.2807C27.1256 40.1746 26.9878 40.1574 26.8499 40.1057C26.557 40.0023 19.699 37.7105 12.8409 30.8697C12.2034 30.2494 11.204 30.1977 10.4975 30.7491C9.77377 31.3178 9.58423 32.3172 10.0495 33.0926C12.7375 37.5382 18.7168 42.7938 27.4875 44.1895C28.1595 44.2929 28.6764 44.8787 28.6764 45.568C28.6764 45.568 28.6764 82.4945 28.6764 82.4945Z" fill="#BABABA"/>
<path d="M87.7795 57.8195H45.8732C45.0978 57.8195 44.4775 57.1992 44.4775 56.4238C44.4775 55.6484 45.0978 55.0281 45.8732 55.0281H87.7795C89.1063 55.0281 90.1919 53.9425 90.1919 52.5984V19.9625C90.1919 18.6357 89.1063 17.5501 87.7795 17.5501H37.3437C36.5683 17.5501 35.948 16.9298 35.948 16.1544C35.948 15.3618 36.5683 14.7415 37.3437 14.7415H87.7795C90.6571 14.7415 93.0006 17.0849 93.0006 19.9625V52.5984C93.0006 55.4933 90.6571 57.8195 87.7795 57.8195Z" fill="#BABABA"/>
<path d="M81.8864 26.4587H65.534C64.7586 26.4587 64.1383 25.8384 64.1383 25.063C64.1383 24.2876 64.7758 23.6672 65.534 23.6672H81.8864C82.6618 23.6672 83.2822 24.2876 83.2822 25.063C83.2822 25.8384 82.6618 26.4587 81.8864 26.4587Z" fill="#BABABA"/>
<path d="M84.2643 32.4033H65.534C64.7586 32.4033 64.1383 31.7829 64.1383 31.0075C64.1383 30.2321 64.7758 29.6118 65.534 29.6118H84.2643C85.0397 29.6118 85.6601 30.2321 85.6601 31.0075C85.6601 31.7829 85.0397 32.4033 84.2643 32.4033Z" fill="#BABABA"/>
<path d="M74.9078 53.4084C69.928 53.4084 65.8786 49.3591 65.8786 44.3793C65.8786 39.3994 69.928 35.3501 74.9078 35.3501C79.8876 35.3501 83.937 39.3994 83.937 44.3793C83.937 49.3591 79.8876 53.4084 74.9078 53.4084ZM74.9078 38.1588C71.4788 38.1588 68.6873 40.9502 68.6873 44.3793C68.6873 47.8083 71.4788 50.5997 74.9078 50.5997C78.3368 50.5997 81.1283 47.8083 81.1283 44.3793C81.1283 40.9502 78.3368 38.1588 74.9078 38.1588Z" fill="#BABABA"/>
<path d="M80.8009 50.617C80.4907 50.617 80.1805 50.5136 79.9221 50.3068L74.029 45.4648C73.7016 45.1891 73.5121 44.7928 73.5121 44.3793V36.7458C73.5121 35.9704 74.1324 35.3501 74.9078 35.3501C75.6832 35.3501 76.3035 35.9704 76.3035 36.7458V43.7072L81.6969 48.1184C82.3 48.6009 82.3861 49.4969 81.8864 50.1C81.6107 50.4446 81.2144 50.617 80.8009 50.617Z" fill="#BABABA"/>
<path d="M61.5708 50.6169H49.8881C49.1127 50.6169 48.4923 49.9966 48.4923 49.2212C48.4923 48.4458 49.1127 47.8254 49.8881 47.8254H61.5708C62.3462 47.8254 62.9666 48.4458 62.9666 49.2212C62.9666 49.9966 62.3462 50.6169 61.5708 50.6169Z" fill="#BABABA"/>
<path d="M71.0997 85.2863H68.8596C68.0842 85.2863 67.4639 84.666 67.4639 83.8906C67.4639 83.1152 68.0842 82.4949 68.8596 82.4949H71.1169C71.8923 82.4949 72.5126 83.1152 72.5126 83.8906C72.5126 84.666 71.8923 85.2863 71.0997 85.2863Z" fill="#BABABA"/>
<path d="M77.8543 85.2863H75.6143C74.8389 85.2863 74.2185 84.666 74.2185 83.8906C74.2185 83.1152 74.8389 82.4949 75.6143 82.4949H77.8543C78.6297 82.4949 79.2501 83.1152 79.2501 83.8906C79.2501 84.666 78.6297 85.2863 77.8543 85.2863Z" fill="#BABABA"/>
</svg>
